<svg xmlns="http://www.w3.org/2000/svg" width="512" height="512" viewBox="0 0 551.13 551.13"><path xmlns="http://www.w3.org/2000/svg" d="M312.467 551.13h-73.803a17.206 17.206 0 01-15.995-10.832l-14.397-35.993a236.38 236.38 0 01-46.892-19.409l-35.623 15.272c-6.459 2.691-13.977 1.312-18.955-3.667l-52.19-52.173a17.232 17.232 0 01-3.65-18.972l15.255-35.623a238.341 238.341 0 01-19.409-46.858l-35.993-14.431C4.289 325.821 0 319.497 0 312.466v-73.803c0-7.03 4.289-13.354 10.815-15.978l35.993-14.431a238.463 238.463 0 0119.409-46.858l-15.255-35.623a17.23 17.23 0 013.65-18.972l52.19-52.173c4.978-4.978 12.497-6.358 18.955-3.667l35.623 15.272a236.27 236.27 0 0146.892-19.409l14.397-35.993A17.206 17.206 0 01238.664 0h73.803a17.206 17.206 0 0115.995 10.832l14.397 35.993a236.38 236.38 0 0146.892 19.409l35.623-15.272c6.475-2.691 13.977-1.312 18.955 3.667l52.19 52.173a17.232 17.232 0 013.65 18.972l-15.255 35.623a238.341 238.341 0 0119.409 46.858l35.993 14.431c6.526 2.624 10.815 8.948 10.815 15.978v73.803c0 7.03-4.289 13.354-10.815 15.978l-35.993 14.431a238.463 238.463 0 01-19.409 46.858l15.255 35.623a17.23 17.23 0 01-3.65 18.972l-52.19 52.173c-4.978 4.978-12.48 6.358-18.955 3.667l-35.623-15.272a236.27 236.27 0 01-46.892 19.409l-14.397 35.993a17.206 17.206 0 01-15.995 10.831zm-62.147-34.445h50.491l13.237-33.1a17.195 17.195 0 0111.757-10.293c19.09-4.878 37.271-12.413 54.023-22.403 4.76-2.826 10.546-3.162 15.608-1.043l32.781 14.061 35.707-35.69-14.044-32.764a17.278 17.278 0 011.026-15.608 203.081 203.081 0 0022.369-54.023 17.21 17.21 0 0110.293-11.74l33.117-13.253v-50.525l-33.117-13.254a17.207 17.207 0 01-10.293-11.74 203.081 203.081 0 00-22.369-54.023 17.278 17.278 0 01-1.026-15.608l14.044-32.764-35.707-35.69-32.781 14.061c-5.063 2.119-10.848 1.783-15.608-1.043-16.752-9.991-34.933-17.526-54.023-22.403a17.197 17.197 0 01-11.757-10.293l-13.237-33.1H250.32l-13.237 33.1a17.195 17.195 0 01-11.757 10.293c-19.09 4.878-37.271 12.413-54.023 22.403-4.743 2.826-10.579 3.162-15.608 1.043l-32.781-14.061-35.707 35.69 14.044 32.764a17.278 17.278 0 01-1.026 15.608 203.081 203.081 0 00-22.369 54.023 17.21 17.21 0 01-10.293 11.74l-33.117 13.254v50.525l33.117 13.253a17.207 17.207 0 0110.293 11.74 203.081 203.081 0 0022.369 54.023 17.278 17.278 0 011.026 15.608l-14.044 32.764 35.707 35.69 32.781-14.061c5.029-2.119 10.865-1.783 15.608 1.043 16.752 9.991 34.933 17.526 54.023 22.403a17.2 17.2 0 0111.757 10.293l13.237 33.1zm283.587-204.219h.336z" data-original="#000000"/><path xmlns="http://www.w3.org/2000/svg" d="M275.565 413.348c-75.972 0-137.783-61.794-137.783-137.783s61.81-137.783 137.783-137.783 137.783 61.794 137.783 137.783-61.81 137.783-137.783 137.783zm0-241.12c-56.983 0-103.337 46.354-103.337 103.337s46.353 103.337 103.337 103.337 103.337-46.354 103.337-103.337-46.353-103.337-103.337-103.337z" data-original="#000000"/></svg>